<svg xmlns="http://www.w3.org/2000/svg" viewBox="0 0 1200 750" role="img">
  <defs>
    <filter id="shadow" x="-20%" y="-20%" width="140%" height="140%"><feDropShadow dx="0" dy="24" stdDeviation="24" flood-color="#000000" flood-opacity=".16"/></filter>
    <linearGradient id="glow" x1="0" y1="0" x2="1" y2="1"><stop stop-color="#176B68" stop-opacity=".22"/><stop offset="1" stop-color="#176B68" stop-opacity="0"/></linearGradient>
  </defs>
  <rect width="1200" height="750" rx="46" fill="#E8C5A9"/>
  <circle cx="1020" cy="80" r="260" fill="url(#glow)"/>
  <path d="M48 640C260 510 330 710 560 580s350 80 592-45" fill="none" stroke="#0B2128" stroke-opacity=".09" stroke-width="2"/>
  <rect x="86" y="88" width="1028" height="574" rx="34" fill="#FBF9F4" stroke="#0B2128" stroke-opacity=".18" filter="url(#shadow)"/>
  <g fill="none" stroke="#0B2128" stroke-width="7" stroke-linecap="round" stroke-linejoin="round">
      <rect x="148" y="184" width="250" height="126" rx="22"/>
      <rect x="475" y="312" width="250" height="126" rx="22"/>
      <rect x="802" y="440" width="250" height="126" rx="22"/>
      <path d="M398 247h76c47 0 126 18 126 65M725 375h76c47 0 126 18 126 65" stroke="#176B68"/>
      <path d="m578 286 22 26 22-26m283 128 22 26 22-26" stroke="#176B68"/>
      <path d="M190 224h119m-119 38h163M517 352h102m-102 40h163M844 480h119m-119 40h163" stroke-opacity=".32"/>
      <circle cx="350" cy="247" r="15" fill="#D98258" stroke="none"/>
      <circle cx="676" cy="375" r="15" fill="#176B68" stroke="none"/>
      <circle cx="1004" cy="503" r="15" fill="#D98258" stroke="none"/>
    </g>
  <circle cx="1058" cy="142" r="10" fill="#176B68"/>
  <circle cx="1028" cy="142" r="10" fill="#0B2128" fill-opacity=".2"/>
  <circle cx="998" cy="142" r="10" fill="#0B2128" fill-opacity=".2"/>
</svg>
